<svg width="116" height="33" viewBox="0 0 116 33" fill="none" xmlns="http://www.w3.org/2000/svg">
<path d="M54.3213 30.9176V1.26616C54.3213 0.996598 54.501 0.816895 54.7706 0.816895H59.1733C59.4429 0.816895 59.6226 0.996598 59.6226 1.26616V30.9176C59.6226 31.1871 59.4429 31.3668 59.1733 31.3668H54.7706C54.501 31.3668 54.3213 31.1871 54.3213 30.9176Z" fill="white"/>
<path d="M28.3902 24.3584C27.7612 22.4715 27.5815 20.944 27.5815 16.0919C27.5815 11.2399 27.7612 9.71237 28.3902 7.82546C29.9626 2.83863 33.8263 0.322754 38.9928 0.322754C43.8898 0.322754 47.5738 2.83863 49.3259 6.88201C49.4158 7.10664 49.3259 7.33127 49.1013 7.42112L45.2825 9.26311C45.013 9.39788 44.7883 9.26311 44.6985 9.03847C43.7101 6.88201 42.0029 5.08495 38.9928 5.08495C36.0726 5.08495 34.3654 6.65738 33.5118 9.12833C33.1075 10.3863 32.9727 11.5993 32.9727 16.0919C32.9727 20.5846 33.1075 21.7976 33.5118 23.0555C34.3654 25.5265 36.0726 27.0989 38.9928 27.0989C42.0029 27.0989 43.7101 25.3018 44.6985 23.1454C44.7883 22.9207 45.013 22.7859 45.2825 22.9207L49.1013 24.7627C49.3259 24.8526 49.4158 25.0772 49.3259 25.3018C47.5738 29.3452 43.8898 31.8611 38.9928 31.8611C33.8263 31.8611 29.9626 29.3452 28.3902 24.3584Z" fill="white"/>
<path d="M23.1243 31.3668H18.1375C17.7781 31.3668 17.5984 31.2321 17.4636 30.9176L11.6232 19.0121H6.36677C6.18706 19.0121 6.09721 19.1019 6.09721 19.2816V30.9176C6.09721 31.1871 5.91751 31.3668 5.64795 31.3668H1.24516C0.975604 31.3668 0.795898 31.1871 0.795898 30.9176V1.26616C0.795898 0.996598 0.975604 0.816895 1.24516 0.816895H13.0608C18.6766 0.816895 22.8098 4.54578 22.8098 9.93695C22.8098 13.9354 20.5186 17.0353 17.0143 18.3382L23.4388 30.7828C23.6185 31.0973 23.4388 31.3668 23.1243 31.3668ZM12.8811 14.2499C15.6665 14.2499 17.5534 12.5427 17.5534 9.93695C17.5534 7.28629 15.6665 5.57909 12.8811 5.57909H6.36677C6.18706 5.57909 6.09721 5.66894 6.09721 5.84865V13.9803C6.09721 14.16 6.18706 14.2499 6.36677 14.2499H12.8811Z" fill="white"/>
<path d="M74.6784 3.07019C74.6784 3.71063 74.4107 4.38931 73.9901 4.74298C73.9423 4.78122 73.9041 4.78122 73.8563 4.73342L73.2923 4.16945C73.2445 4.12166 73.2445 4.07386 73.2923 4.02607C73.5695 3.73931 73.7225 3.40475 73.7225 3.0224C73.7225 2.31504 73.3401 1.99005 72.6232 1.99005L72.1931 1.99005L72.1931 1.9996C72.5181 2.2099 72.7284 2.60181 72.7284 3.19445C72.7284 3.96872 72.3365 4.52313 71.61 4.7621C71.2563 4.8768 70.9409 4.91504 70.4343 4.91504C69.9276 4.91504 69.6218 4.8768 69.2681 4.7621C68.532 4.52313 68.1401 3.96872 68.1401 3.19445C68.1401 2.60181 68.3504 2.2099 68.685 1.9996L68.685 1.99005L68.3409 1.99005C68.2835 1.99005 68.2453 1.95181 68.2453 1.89446L68.2453 1.01505C68.2453 0.957696 68.2835 0.919458 68.3409 0.919458L72.5659 0.919458C73.885 0.919458 74.6784 1.65549 74.6784 3.07019ZM71.782 2.91725C71.782 2.47754 71.5717 2.21946 71.1894 2.09519C70.9791 2.01872 70.7497 1.99005 70.4342 1.99005C70.1284 1.99005 69.899 2.01872 69.6791 2.09519C69.3063 2.21946 69.096 2.47754 69.096 2.91725C69.096 3.34739 69.3063 3.60548 69.6791 3.72975C69.899 3.80622 70.1284 3.83489 70.4343 3.83489C70.7497 3.83489 70.9791 3.80622 71.1894 3.72975C71.5717 3.60548 71.782 3.34739 71.782 2.91725Z" fill="white"/>
<path d="M72.8526 6.08943L72.8526 6.96884C72.8526 7.02619 72.8144 7.06443 72.757 7.06443L70.0997 7.06443C69.507 7.06443 69.096 7.36075 69.096 7.93428C69.096 8.48869 69.507 8.81369 70.0997 8.81369L72.757 8.81369C72.8144 8.81369 72.8526 8.85193 72.8526 8.90928L72.8526 9.78869C72.8526 9.84604 72.8144 9.88428 72.757 9.88428L68.3409 9.88428C68.2835 9.88428 68.2453 9.84604 68.2453 9.78869L68.2453 8.90928C68.2453 8.85193 68.2835 8.81369 68.3409 8.81369L68.6754 8.81369L68.6754 8.80413C68.3887 8.6034 68.1401 8.20193 68.1401 7.59016C68.1401 6.60561 68.8666 5.99384 69.8512 5.99384L72.757 5.99384C72.8144 5.99384 72.8526 6.03208 72.8526 6.08943Z" fill="white"/>
<path d="M67.3753 11.3736L67.3753 12.253C67.3753 12.3104 67.3371 12.3486 67.2797 12.3486L66.4481 12.3486C66.3908 12.3486 66.3525 12.3104 66.3525 12.253L66.3525 11.3736C66.3525 11.3163 66.3908 11.278 66.4481 11.278L67.2797 11.278C67.3371 11.278 67.3753 11.3163 67.3753 11.3736ZM72.8525 11.3736L72.8525 12.253C72.8525 12.3104 72.8143 12.3486 72.7569 12.3486L68.3408 12.3486C68.2834 12.3486 68.2452 12.3104 68.2452 12.253L68.2452 11.3736C68.2452 11.3163 68.2834 11.278 68.3408 11.278L72.7569 11.278C72.8143 11.278 72.8525 11.3163 72.8525 11.3736Z" fill="white"/>
<path d="M72.8525 13.839L72.8525 14.7184C72.8525 14.7758 72.8143 14.814 72.7569 14.814L72.4128 14.814L72.4128 14.8236C72.7283 15.0434 72.9577 15.4258 72.9577 16.0471C72.9577 16.8309 72.5849 17.4044 71.8489 17.6434C71.4952 17.7581 71.1702 17.8059 70.5489 17.8059C69.9275 17.8059 69.6025 17.7581 69.2489 17.6434C68.5128 17.4044 68.14 16.8309 68.14 16.0471C68.14 15.4258 68.3694 15.0434 68.6849 14.8236L68.6849 14.814L66.4481 14.814C66.3908 14.814 66.3525 14.7758 66.3525 14.7184L66.3525 13.839C66.3525 13.7817 66.3908 13.7434 66.4481 13.7434L72.7569 13.7434C72.8143 13.7434 72.8525 13.7817 72.8525 13.839ZM72.0018 15.7699C72.0018 15.3302 71.7915 15.0339 71.4091 14.9096C71.1989 14.8427 70.9694 14.814 70.5489 14.814C70.1283 14.814 69.8989 14.8427 69.6886 14.9096C69.3062 15.0339 69.0959 15.3302 69.0959 15.7699C69.0959 16.2 69.3062 16.4964 69.6886 16.6206C69.8989 16.6875 70.1283 16.7162 70.5489 16.7162C70.9694 16.7162 71.1989 16.6875 71.4091 16.6206C71.7915 16.4964 72.0018 16.2 72.0018 15.7699Z" fill="white"/>
<path d="M72.9099 18.6758L72.9099 19.0964C72.9099 19.9949 72.4797 20.3582 71.5908 20.3582L66.4481 20.3582C66.3908 20.3582 66.3525 20.3199 66.3525 20.2626L66.3525 19.3832C66.3525 19.3258 66.3908 19.2876 66.4481 19.2876L71.5334 19.2876C71.8489 19.2876 71.954 19.1633 71.954 18.8861L71.954 18.6758C71.954 18.6185 71.9922 18.5802 72.0496 18.5802L72.8143 18.5802C72.8716 18.5802 72.9099 18.6185 72.9099 18.6758Z" fill="white"/>
<path d="M72.9578 23.5359C72.9578 24.4727 72.4894 25.18 71.6865 25.4381C71.3615 25.5433 71.0556 25.5911 70.549 25.5911C70.0423 25.5911 69.7365 25.5433 69.4115 25.4381C68.6085 25.18 68.1401 24.4727 68.1401 23.5359C68.1401 22.6087 68.6085 21.9014 69.4115 21.6433C69.7365 21.5381 70.0423 21.4903 70.549 21.4903C71.0556 21.4903 71.3615 21.5381 71.6865 21.6433C72.4894 21.9014 72.9578 22.6087 72.9578 23.5359ZM72.0019 23.5359C72.0019 23.1058 71.782 22.8095 71.3997 22.6756C71.1607 22.5992 70.9409 22.58 70.549 22.58C70.157 22.58 69.9468 22.5992 69.6982 22.6756C69.3159 22.8095 69.096 23.1058 69.096 23.5359C69.096 23.9661 69.3159 24.2719 69.6982 24.4058C69.9468 24.4822 70.157 24.5014 70.549 24.5014C70.9409 24.5014 71.1607 24.4822 71.3997 24.4058C71.782 24.2719 72.0019 23.9661 72.0019 23.5359Z" fill="white"/>
<path d="M72.7569 31.6057L66.4481 31.6057C66.3908 31.6057 66.3525 31.5675 66.3525 31.5101L66.3525 30.5734C66.3525 30.516 66.3908 30.4778 66.4481 30.4778L69.0099 30.4778C69.0481 30.4778 69.0672 30.4587 69.0672 30.4204L69.0672 27.9447C69.0672 27.9065 69.0481 27.8873 69.0099 27.8873L66.4481 27.8873C66.3908 27.8873 66.3525 27.8491 66.3525 27.7917L66.3525 26.855C66.3525 26.7976 66.3908 26.7594 66.4481 26.7594L72.7569 26.7594C72.8143 26.7594 72.8525 26.7976 72.8525 26.855L72.8525 27.7917C72.8525 27.8491 72.8143 27.8873 72.7569 27.8873L70.1378 27.8873C70.0996 27.8873 70.0805 27.9065 70.0805 27.9447L70.0805 30.4204C70.0805 30.4587 70.0996 30.4778 70.1378 30.4778L72.7569 30.4778C72.8143 30.4778 72.8525 30.516 72.8525 30.5734L72.8525 31.5101C72.8525 31.5675 72.8143 31.6057 72.7569 31.6057Z" fill="white"/>
<ellipse cx="99.1602" cy="16.5667" rx="4.70761" ry="4.70761" fill="white"/>
<ellipse cx="87.8238" cy="5.51816" rx="4.70761" ry="4.70761" fill="white"/>
<ellipse cx="87.8238" cy="16.5667" rx="4.70761" ry="4.70761" fill="white"/>
<ellipse cx="87.8238" cy="27.6151" rx="4.70761" ry="4.70761" fill="white"/>
<ellipse cx="99.1602" cy="5.51816" rx="4.70761" ry="4.70761" fill="white"/>
<ellipse cx="99.1602" cy="27.6151" rx="4.70761" ry="4.70761" fill="white"/>
<ellipse cx="110.497" cy="5.51816" rx="4.70761" ry="4.70761" fill="white"/>
<ellipse cx="110.497" cy="16.5667" rx="4.70761" ry="4.70761" fill="white"/>
<ellipse cx="110.497" cy="27.6151" rx="4.70761" ry="4.70761" fill="white"/>
</svg>
